HIERARCHY
ROOT Hips
{
	OFFSET	0.00	0.00	0.00
	CHANNELS 6 Xposition Yposition Zposition Zrotation Xrotation Yrotation
	JOINT LeftUpLeg
	{
		OFFSET	 0.126116	-0.065224	 0.014019
		CHANNELS 3 Zrotation Xrotation Yrotation
		JOINT LeftLeg
		{
			OFFSET	 0.000000	 0.569914	 0.000000
			CHANNELS 3 Zrotation Xrotation Yrotation
			JOINT LeftFoot
			{
				OFFSET	 0.000000	 0.544423	 0.000000
				CHANNELS 3 Zrotation Xrotation Yrotation
				JOINT LeftToeBase
				{
					OFFSET	 0.000000	 0.207117	 0.000000
					CHANNELS 3 Zrotation Xrotation Yrotation
					End Site
					{
						OFFSET	 0.000000	 0.207117	 0.000000
					}
				}
			}
		}
	}
	JOINT RightUpLeg
	{
		OFFSET	-0.124023	-0.065224	 0.008373
		CHANNELS 3 Zrotation Xrotation Yrotation
		JOINT RightLeg
		{
			OFFSET	 0.000000	 0.570047	 0.000000
			CHANNELS 3 Zrotation Xrotation Yrotation
			JOINT RightFoot
			{
				OFFSET	 0.000000	 0.544354	 0.000000
				CHANNELS 3 Zrotation Xrotation Yrotation
				JOINT RightToeBase
				{
					OFFSET	 0.000000	 0.207540	 0.000000
					CHANNELS 3 Zrotation Xrotation Yrotation
					End Site
					{
						OFFSET	 0.000000	 0.207540	 0.000000
					}
				}
			}
		}
	}
	JOINT Spine
	{
		OFFSET	 0.000184	 0.117403	 0.007763
		CHANNELS 3 Zrotation Xrotation Yrotation
		JOINT Spine1
		{
			OFFSET	 0.000000	 0.137269	 0.000000
			CHANNELS 3 Zrotation Xrotation Yrotation
			JOINT Spine2
			{
				OFFSET	 0.000000	 0.156879	 0.000000
				CHANNELS 3 Zrotation Xrotation Yrotation
				JOINT LeftShoulder
				{
					OFFSET	 0.080501	 0.160143	 0.002496
					CHANNELS 3 Zrotation Xrotation Yrotation
					JOINT LeftArm
					{
						OFFSET	 0.000000	 0.164363	 0.000000
						CHANNELS 3 Zrotation Xrotation Yrotation
						JOINT LeftForeArm
						{
							OFFSET	 0.000000	 0.364576	 0.000000
							CHANNELS 3 Zrotation Xrotation Yrotation
							JOINT LeftHand
							{
								OFFSET	 0.000000	 0.360812	 0.000000
								CHANNELS 3 Zrotation Xrotation Yrotation
								JOINT LeftHandIndex1
								{
									OFFSET	 0.000000	 0.086006	 0.000000
									CHANNELS 3 Zrotation Xrotation Yrotation
									JOINT LeftHandIndex2
									{
										OFFSET	 0.000000	 0.047237	 0.000000
										CHANNELS 3 Zrotation Xrotation Yrotation
										JOINT LeftHandIndex3
										{
											OFFSET	-0.004284	 0.038165	 0.000551
											CHANNELS 3 Zrotation Xrotation Yrotation
											End Site
											{
												OFFSET	-0.004284	 0.038165	 0.000551
											}
										}
									}
								}
							}
						}
					}
				}
				JOINT Neck
				{
					OFFSET	 0.000000	 0.176489	 0.000000
					CHANNELS 3 Zrotation Xrotation Yrotation
					JOINT Head
					{
						OFFSET	 0.000000	 0.077941	 0.001747
						CHANNELS 3 Zrotation Xrotation Yrotation
						End Site
						{
							OFFSET	 0.000000	 0.077941	 0.001747
						}
					}
				}
				JOINT RightShoulder
				{
					OFFSET	-0.080363	 0.159706	-0.000306
					CHANNELS 3 Zrotation Xrotation Yrotation
					JOINT RightArm
					{
						OFFSET	 0.000000	 0.164196	 0.000000
						CHANNELS 3 Zrotation Xrotation Yrotation
						JOINT RightForeArm
						{
							OFFSET	 0.000000	 0.365611	 0.000000
							CHANNELS 3 Zrotation Xrotation Yrotation
							JOINT RightHand
							{
								OFFSET	 0.000000	 0.360648	 0.000000
								CHANNELS 3 Zrotation Xrotation Yrotation
								JOINT RightHandIndex1
								{
									OFFSET	 0.000000	 0.069977	 0.000000
									CHANNELS 3 Zrotation Xrotation Yrotation
									JOINT RightHandIndex2
									{
										OFFSET	 0.000000	 0.052305	 0.000000
										CHANNELS 3 Zrotation Xrotation Yrotation
										JOINT RightHandIndex3
										{
											OFFSET	 0.009002	 0.042196	 0.000782
											CHANNELS 3 Zrotation Xrotation Yrotation
											End Site
											{
												OFFSET	 0.009002	 0.042196	 0.000782
											}
										}
									}
								}
							}
						}
					}
				}
			}
		}
	}
}
MOTION
Frames:    7
Frame Time: 0.03333334
-0.144032	 1.242643	-0.206934	 10.677950	-2.765213	-170.622400	-158.717800	 21.914600	-13.747220	 8.370970	-28.671150	 9.017328	-2.841093	 59.465620	-6.867718	 1.876706	 35.563000	-2.935807	 167.542300	 1.490642	 50.553560	-3.030596	-34.907980	 9.311003	 20.888150	 64.302600	-13.217730	-3.601813	 50.956470	 4.126768	-4.039499	 3.610128	 15.505800	-6.950022	 4.923208	 5.508363	 4.735984	-5.197238	-6.939268	-100.207500	 3.542901	 93.432880	 68.186160	 41.873460	-19.093890	 17.994490	-0.783872	 0.058141	 43.438490	 12.875370	 0.792133	 3.651527	 54.572610	-2.062905	-8.672495	 61.018270	 8.942199	 6.613612	 34.414510	 0.048680	 4.068294	-10.393290	-2.757678	 7.425170	-6.971961	-6.732217	 79.819900	 15.981950	-65.821480	 1.316072	 17.935850	-8.524339	-63.650190	-1.918713	-1.192442	 24.407480	-19.724540	-11.250020	-4.682811	-12.292810	-0.480698	 11.955020	 5.792991	-1.342697	-8.189751	-4.007330	 0.572367
-0.158098	 1.192470	-0.190314	 13.206990	-6.255403	-160.560300	-161.494000	 36.967090	-5.317060	 14.775010	-43.768560	 15.675230	 12.005450	 71.616930	-19.429850	 1.292262	 28.440610	-2.726116	 167.269700	 8.462973	 46.760470	-4.023199	-42.801140	 5.179543	 30.562520	 76.722420	-15.996190	-2.929989	 45.861410	 3.643715	-4.962942	 4.363354	 23.111410	-7.901329	 9.338349	 9.002681	 4.717130	-9.131434	-10.020850	-101.884500	 3.171651	 93.303670	 57.392310	 39.824300	-10.502740	 7.799629	-0.251162	-0.060418	 37.010650	 17.640830	 30.146510	 3.803425	 55.224870	-2.169155	-8.835694	 61.703460	 9.162353	 6.609473	 34.326290	 0.049148	 3.607097	-12.386450	-3.846355	 6.124535	-9.568085	-13.391310	 101.249200	 28.503720	-97.692210	-58.262740	 35.697060	 1.854808	-7.992532	-0.198231	 0.039687	 19.276300	 1.898205	 0.652265	-4.827925	 7.851315	-0.636457	 13.171650	 29.825250	-6.922389	-8.533379	 22.575870	-1.133818
-0.167595	 1.183456	-0.182957	 11.684080	-7.484003	-160.636500	-163.761700	 38.731310	-6.544251	 15.861820	-45.752740	 16.916350	 20.514620	 74.367420	-26.208950	 1.138796	 26.374110	-2.650509	 166.628800	 7.326400	 48.410040	-3.573155	-39.306420	 8.763118	 49.876100	 80.956890	-37.528470	-1.991754	 36.840820	 3.057172	-4.895029	 4.529542	 23.714610	-7.755526	 8.886784	 9.166796	 4.737363	-8.910711	-9.660017	-103.504900	 2.650724	 93.073070	 39.005620	 47.561230	-0.293117	 8.000317	-0.245875	-0.059825	 21.415530	 13.948630	 52.737750	 3.887591	 55.108760	-2.231019	-8.795560	 61.538550	 9.108529	 6.614510	 34.433560	 0.048607	 4.021803	-11.978630	-3.880336	 4.833050	-9.588334	-13.192460	 103.349400	 27.426120	-97.900280	-44.185740	 44.911120	-4.871130	-8.248936	-0.196395	 0.038882	 12.089620	-3.704822	-19.172690	-4.897842	 13.073940	-0.626124	 14.081950	 36.483810	-8.849197	-8.484418	 29.641180	-1.616114
-0.153871	 1.196429	-0.186316	 7.950768	-6.195659	-167.387200	-162.580000	 32.384790	-14.472600	 13.608260	-41.468870	 14.527940	 17.523270	 74.146640	-22.826810	 1.148866	 26.510940	-2.654457	 165.725600	 4.843422	 43.034530	-3.015108	-34.770480	 10.806430	 45.504620	 78.883000	-35.231200	-1.833829	 35.071630	 2.971335	-3.462613	 4.762534	 20.092680	-6.493151	 6.864871	 7.717052	 4.668434	-7.051662	-8.073334	-104.346600	 2.401661	 92.789130	 19.878210	 55.731590	 4.830428	 8.306758	-0.246532	-0.058522	 14.726420	 15.937020	 46.053380	 3.874068	 55.246870	-2.224074	-8.725451	 61.244850	 9.014002	 6.627335	 34.705740	 0.047152	 4.122251	-10.118170	-3.213061	 2.604336	-8.657068	-9.887990	 106.572300	 24.794010	-98.008440	-17.538910	 47.674820	-11.665250	-8.434752	-0.192168	 0.038582	-9.050182	-6.321764	-40.652100	-4.783946	 12.483940	-0.581110	 14.036100	 36.201400	-8.761398	-8.488022	 29.336890	-1.594525
-0.108653	 1.207165	-0.187050	 4.491418	-4.660081	-175.093300	-160.827900	 25.301040	-22.654340	 10.888920	-35.357970	 12.324750	 11.274770	 72.403730	-17.558350	 1.149149	 26.514870	-2.654567	 166.768700	 2.361438	 36.760760	-2.453709	-29.469650	 11.165230	 44.198140	 79.106800	-34.800790	-1.487338	 30.918790	 2.798725	-2.075308	 4.620294	 14.887700	-4.921368	 4.700620	 6.083259	 4.181223	-4.880060	-6.068994	-105.325800	 3.153569	 92.745860	 9.062818	 57.203010	 16.373290	 8.562336	-0.246610	-0.057424	 9.342272	 15.469260	 45.919210	 3.173796	 49.155370	-1.665097	-7.596770	 55.245970	 7.380199	 6.408173	 29.915210	 0.061917	 4.090428	-8.888062	-2.342903	 1.356347	-7.199248	-5.381408	 109.864900	 21.709760	-97.857960	-1.134919	 45.608310	-19.481630	-8.629580	-0.189814	 0.038051	 0.525933	-4.248895	-25.328680	-3.547729	 8.246666	 0.113467	 13.076990	 28.961410	-6.691235	-8.535242	 20.477010	-0.996430
-0.064337	 1.214309	-0.178362	 2.513014	-3.653976	-179.961500	-159.808600	 19.953830	-27.489240	 8.447344	-28.889140	 9.046717	 1.996179	 69.324220	-9.128700	 1.149776	 26.523440	-2.654814	 168.029000	 1.352979	 32.418150	-2.138457	-26.220750	 10.963240	 41.488690	 79.094900	-32.222700	-1.351303	 29.185730	 2.737348	-0.947800	 4.356422	 10.712540	-3.380879	 3.913644	 4.610546	 3.658083	-4.031420	-4.803672	-106.441100	 3.779691	 92.730630	 8.530195	 55.862030	 17.979030	 8.791627	-0.248111	-0.056336	 12.745510	 13.114700	 37.181570	 2.069485	 36.602600	-0.908261	-6.353618	 42.379240	 4.995098	 5.968246	 19.621930	 0.026311	 4.008968	-8.226969	-1.704979	 0.517602	-6.558324	-2.315896	 112.750100	 19.175520	-97.640990	 4.875730	 43.421440	-19.573380	-8.792336	-0.188296	 0.037652	 4.425206	 3.408889	-20.476150	-2.827939	 5.800123	 0.567499	 12.680860	 24.751050	-5.612454	-8.519079	 15.565520	-0.681387
-0.028322	 1.217637	-0.165433	 1.639062	-3.034015	 177.203300	-158.956300	 16.079820	-30.235130	 6.489058	-23.001110	 5.124583	-6.695881	 65.627490	-0.720844	 1.150605	 26.534750	-2.655144	 169.189300	 1.719008	 29.441770	-2.077407	-25.569150	 10.381270	 40.278630	 79.239910	-30.248290	-1.342381	 29.070180	 2.733453	 0.146637	 4.188776	 7.938067	-2.806714	 3.850914	 3.888403	 3.559809	-4.040807	-4.088403	-107.574100	 4.288452	 92.736210	 13.616360	 52.144170	 14.117950	 8.954577	-0.248445	-0.055610	 20.056830	 7.875802	 25.390430	 1.071948	 20.662260	-0.424899	-5.870729	 25.866720	 2.866761	 5.421494	 6.459428	-0.132175	 3.907976	-7.960598	-1.249499	-0.007707	-6.442722	-0.337066	 115.215600	 17.139230	-97.402540	 6.528535	 45.391620	-17.022210	-8.952497	-0.188449	 0.037094	 3.870004	 11.227580	-19.796920	-2.488062	 4.615251	 0.811895	 12.523680	 22.697770	-5.111058	-8.503387	 13.416070	-0.545319
